# xmcd CD database file
#
# Track frame offsets:
#	150
#	18842
#	30607
#
# Disc length: 653 seconds
#
# Revision: 0
# Processed by: cddbd v1.5.1PL0 Copyright (c) Steve Scherf et al.
# Submitted via: CDex 1.51
#
DISCID=16028b03
DTITLE=SweetS - Earthship〜宇宙船地球号〜
DYEAR=2005
DGENRE=JPop
TTITLE0=Earthship〜宇宙船地球号〜
TTITLE1=賛美歌 第24番 父のかみよ
TTITLE2=Earthship〜宇宙船地球号〜(Instrumental)
EXTD=YEAR: 2005
EXTT0=
EXTT1=
EXTT2=
PLAYORDER=
